<?xml version="1.0" encoding="UTF-8"?>
<svg id="Layer_1" xmlns="http://www.w3.org/2000/svg" version="1.1" viewBox="0 0 557.73 186.87">
  <!-- Generator: Adobe Illustrator 29.3.1, SVG Export Plug-In . SVG Version: 2.1.0 Build 151)  -->
  <g>
    <path d="M70.61,102.41c-3.79,0-6.96-.47-9.49-1.4-2.54-.94-4.56-2.24-6.06-3.92-1.5-1.67-2.55-3.6-3.14-5.76l11.38-.81c.39,1.28,1.14,2.29,2.25,3.03,1.11.74,2.79,1.11,5.06,1.11,2.66,0,4.69-.63,6.09-1.88,1.4-1.26,2.11-3.26,2.11-6.02v-4.21c-.94,1.82-2.44,3.29-4.51,4.4-2.07,1.11-4.38,1.66-6.94,1.66-3.25,0-6.13-.8-8.64-2.4s-4.47-3.84-5.87-6.72c-1.4-2.88-2.11-6.27-2.11-10.16s.7-7.14,2.11-10.05c1.4-2.91,3.35-5.18,5.84-6.83,2.49-1.65,5.33-2.47,8.53-2.47,2.91,0,5.36.64,7.35,1.92,2,1.28,3.51,2.98,4.54,5.1v-6.13h10.86v35.68c0,3.55-.81,6.49-2.44,8.83-1.63,2.34-3.89,4.1-6.8,5.28-2.91,1.18-6.28,1.77-10.12,1.77ZM70.54,80.4c2.56,0,4.59-.99,6.1-2.96,1.5-1.97,2.25-4.7,2.25-8.2,0-2.31-.33-4.31-1-5.98-.67-1.67-1.63-2.96-2.88-3.84-1.26-.89-2.75-1.33-4.47-1.33-2.66,0-4.73,1.01-6.21,3.03s-2.22,4.73-2.22,8.13.76,6.17,2.29,8.16c1.53,1.99,3.57,2.99,6.13,2.99Z"/>
    <path d="M116.86,91.33c-4.04,0-7.56-.85-10.57-2.55-3-1.7-5.34-4.1-7.02-7.2-1.68-3.1-2.51-6.75-2.51-10.93s.84-7.82,2.51-10.9c1.67-3.08,4.01-5.48,7.02-7.2,3-1.72,6.53-2.59,10.57-2.59s7.56.86,10.56,2.59c3,1.72,5.34,4.12,7.02,7.2,1.67,3.08,2.51,6.71,2.51,10.9s-.84,7.83-2.51,10.93c-1.68,3.1-4.02,5.5-7.02,7.2-3,1.7-6.53,2.55-10.56,2.55ZM116.86,82.83c2.76,0,4.9-1.07,6.43-3.21,1.53-2.14,2.29-5.13,2.29-8.98s-.76-6.83-2.29-8.98c-1.53-2.14-3.67-3.21-6.43-3.21s-4.9,1.07-6.43,3.21c-1.53,2.14-2.29,5.13-2.29,8.98s.76,6.83,2.29,8.98c1.53,2.14,3.67,3.21,6.43,3.21Z"/>
    <path d="M161.71,91.33c-4.04,0-7.56-.85-10.57-2.55-3-1.7-5.34-4.1-7.02-7.2-1.68-3.1-2.51-6.75-2.51-10.93s.84-7.82,2.51-10.9c1.67-3.08,4.01-5.48,7.02-7.2,3-1.72,6.53-2.59,10.57-2.59s7.56.86,10.56,2.59c3,1.72,5.34,4.12,7.02,7.2,1.67,3.08,2.51,6.71,2.51,10.9s-.84,7.83-2.51,10.93c-1.68,3.1-4.02,5.5-7.02,7.2-3,1.7-6.53,2.55-10.56,2.55ZM161.71,82.83c2.76,0,4.9-1.07,6.43-3.21,1.53-2.14,2.29-5.13,2.29-8.98s-.76-6.83-2.29-8.98c-1.53-2.14-3.67-3.21-6.43-3.21s-4.9,1.07-6.43,3.21c-1.53,2.14-2.29,5.13-2.29,8.98s.76,6.83,2.29,8.98c1.53,2.14,3.67,3.21,6.43,3.21Z"/>
    <path d="M202.71,91.33c-3.35,0-6.24-.85-8.68-2.55s-4.31-4.09-5.62-7.17c-1.31-3.08-1.96-6.73-1.96-10.97s.67-7.89,2-10.97c1.33-3.08,3.21-5.47,5.65-7.17,2.44-1.7,5.31-2.55,8.61-2.55,2.81,0,5.23.58,7.28,1.74,2.04,1.16,3.58,2.75,4.62,4.76v-18.47h11.08v52.46h-10.56l-.22-5.84c-1.08,2.12-2.7,3.77-4.84,4.95-2.14,1.18-4.59,1.77-7.35,1.77ZM206.33,82.83c1.77,0,3.27-.47,4.51-1.4,1.23-.94,2.17-2.3,2.81-4.1.64-1.8.96-4.03.96-6.69s-.32-4.96-.96-6.76c-.64-1.8-1.58-3.15-2.81-4.06-1.23-.91-2.73-1.37-4.51-1.37-2.61,0-4.68,1.1-6.21,3.29-1.53,2.19-2.29,5.16-2.29,8.9s.78,6.65,2.33,8.87c1.55,2.22,3.61,3.32,6.17,3.32Z"/>
    <path d="M251.55,91.33c-4.09,0-7.51-.58-10.27-1.74-2.76-1.16-4.86-2.73-6.32-4.73-1.45-2-2.28-4.3-2.48-6.91l11.23-.37c.34,1.87,1.13,3.32,2.36,4.36,1.23,1.03,3.05,1.55,5.47,1.55,1.97,0,3.51-.32,4.62-.96,1.11-.64,1.66-1.63,1.66-2.96,0-.84-.2-1.54-.59-2.11-.39-.57-1.17-1.06-2.33-1.48-1.16-.42-2.87-.8-5.13-1.14-4.19-.74-7.46-1.6-9.83-2.59-2.36-.99-4.04-2.27-5.02-3.84-.99-1.58-1.48-3.5-1.48-5.76,0-3.79,1.46-6.86,4.4-9.2,2.93-2.34,7.33-3.51,13.19-3.51,3.74,0,6.88.59,9.42,1.77,2.54,1.18,4.51,2.8,5.91,4.84,1.4,2.04,2.28,4.37,2.62,6.98l-11.16.44c-.15-1.28-.53-2.38-1.14-3.29-.62-.91-1.39-1.63-2.33-2.14-.94-.52-2.07-.78-3.4-.78-1.97,0-3.49.41-4.54,1.22-1.06.81-1.59,1.88-1.59,3.21,0,.99.23,1.79.7,2.4.47.62,1.24,1.12,2.33,1.51,1.08.4,2.54.71,4.36.96,4.24.59,7.6,1.42,10.08,2.47,2.49,1.06,4.27,2.38,5.36,3.95,1.08,1.58,1.63,3.52,1.63,5.84,0,2.56-.74,4.73-2.22,6.5-1.48,1.77-3.53,3.13-6.17,4.06-2.64.94-5.75,1.4-9.35,1.4Z"/>
    <path d="M276,101.53v-50.68h10.64l.22,8.35-.89-.37c.98-2.86,2.59-5.05,4.8-6.58,2.22-1.53,4.8-2.29,7.76-2.29,3.69,0,6.77.91,9.24,2.73,2.46,1.82,4.32,4.3,5.58,7.42,1.26,3.13,1.88,6.64,1.88,10.53s-.63,7.34-1.88,10.49c-1.26,3.15-3.13,5.64-5.62,7.46s-5.58,2.73-9.27,2.73c-1.92,0-3.72-.36-5.39-1.07-1.67-.71-3.12-1.71-4.32-2.99-1.21-1.28-2.08-2.81-2.62-4.58l.96-.59v19.43h-11.08ZM295.44,82.83c2.61,0,4.67-1.08,6.17-3.25,1.5-2.17,2.25-5.15,2.25-8.94s-.75-6.77-2.25-8.94c-1.5-2.17-3.56-3.25-6.17-3.25-1.72,0-3.21.46-4.47,1.37-1.26.91-2.22,2.28-2.88,4.1s-1,4.06-1,6.72.33,4.9,1,6.72c.67,1.82,1.62,3.19,2.88,4.1,1.26.91,2.75,1.37,4.47,1.37Z"/>
    <path d="M339.84,91.33c-4.04,0-7.55-.85-10.53-2.55-2.98-1.7-5.29-4.1-6.94-7.2-1.65-3.1-2.48-6.75-2.48-10.93s.82-7.82,2.48-10.9c1.65-3.08,3.95-5.48,6.91-7.2,2.96-1.72,6.45-2.59,10.49-2.59s7.36.86,10.27,2.59c2.91,1.72,5.16,4.19,6.76,7.39,1.6,3.2,2.4,7.02,2.4,11.45v2.22h-27.85c.15,3.15,1,5.49,2.55,7.02,1.55,1.53,3.61,2.29,6.17,2.29,1.87,0,3.44-.39,4.69-1.18,1.26-.79,2.15-2,2.7-3.62l11.16.67c-1.03,3.94-3.23,7.02-6.58,9.24-3.35,2.22-7.41,3.33-12.19,3.33ZM331.34,66.8h16.48c-.15-2.91-.95-5.07-2.4-6.5-1.45-1.43-3.34-2.14-5.65-2.14s-4.22.75-5.73,2.25-2.4,3.63-2.7,6.39Z"/>
    <path d="M383.72,91.33c-4.04,0-7.55-.85-10.53-2.55-2.98-1.7-5.29-4.1-6.94-7.2-1.65-3.1-2.48-6.75-2.48-10.93s.82-7.82,2.48-10.9c1.65-3.08,3.95-5.48,6.91-7.2,2.96-1.72,6.45-2.59,10.49-2.59s7.36.86,10.27,2.59c2.91,1.72,5.16,4.19,6.76,7.39,1.6,3.2,2.4,7.02,2.4,11.45v2.22h-27.85c.15,3.15,1,5.49,2.55,7.02,1.55,1.53,3.61,2.29,6.17,2.29,1.87,0,3.44-.39,4.69-1.18,1.26-.79,2.15-2,2.7-3.62l11.16.67c-1.03,3.94-3.23,7.02-6.58,9.24-3.35,2.22-7.41,3.33-12.19,3.33ZM375.23,66.8h16.48c-.15-2.91-.95-5.07-2.4-6.5-1.45-1.43-3.34-2.14-5.65-2.14s-4.22.75-5.73,2.25-2.4,3.63-2.7,6.39Z"/>
    <path d="M427.76,91.33c-4.04,0-7.56-.85-10.57-2.55-3-1.7-5.34-4.1-7.02-7.2-1.68-3.1-2.51-6.75-2.51-10.93s.84-7.82,2.51-10.9c1.67-3.08,4.01-5.48,7.02-7.2,3-1.72,6.53-2.59,10.57-2.59,3.5,0,6.64.62,9.42,1.85,2.78,1.23,5.04,3,6.76,5.32,1.72,2.32,2.78,5.1,3.18,8.35l-11.45.52c-.35-2.46-1.22-4.32-2.62-5.58s-3.17-1.88-5.28-1.88c-2.76,0-4.9,1.06-6.43,3.18-1.53,2.12-2.29,5.1-2.29,8.94s.76,6.83,2.29,8.98c1.53,2.14,3.67,3.21,6.43,3.21,2.12,0,3.89-.65,5.32-1.96,1.43-1.3,2.29-3.29,2.59-5.95l11.45.44c-.34,3.25-1.37,6.07-3.07,8.46-1.7,2.39-3.94,4.24-6.72,5.54-2.78,1.3-5.97,1.96-9.57,1.96Z"/>
    <path d="M453.17,90.44v-52.46h11.08v22.09h-1.48c.39-2.31,1.17-4.21,2.33-5.69,1.16-1.48,2.61-2.59,4.36-3.33,1.75-.74,3.66-1.11,5.73-1.11,2.96,0,5.42.64,7.39,1.92,1.97,1.28,3.46,3.05,4.47,5.32,1.01,2.27,1.51,4.85,1.51,7.76v25.49h-11.08v-22.83c0-2.96-.46-5.17-1.37-6.65s-2.45-2.22-4.62-2.22-4.04.76-5.32,2.29c-1.28,1.53-1.92,3.82-1.92,6.87v22.53h-11.08Z"/>
    <path d="M496.1,84.79h0c0-3.12,2.53-5.65,5.65-5.65h.74c3.12,0,5.65,2.53,5.65,5.65h0c0,3.12-2.53,5.65-5.65,5.65h-.74c-3.12,0-5.65-2.53-5.65-5.65Z"/>
  </g>
  <path d="M128.1,186.71c-.55,0-1.11-.09-1.65-.27-2.1-.71-3.52-2.68-3.52-4.9v-35.21c0-1.66-.65-3.22-1.82-4.4-1.17-1.17-2.73-1.82-4.39-1.82h0l-99.84.06h-.01c-4.48,0-8.68-1.74-11.85-4.91-3.17-3.17-4.91-7.38-4.91-11.86V16.85C.1,7.61,7.62.09,16.87.09h524.04c9.24,0,16.77,7.52,16.77,16.77v106.5c0,9.25-7.52,16.77-16.77,16.77H168.9c-1.94,0-3.79.92-4.96,2.47l-31.71,42.07c-1.01,1.32-2.54,2.06-4.13,2.06ZM116.72,130.12c4.33,0,8.4,1.68,11.46,4.75,3.06,3.06,4.75,7.14,4.75,11.47v20.77l23.02-30.54c3.05-4.04,7.89-6.45,12.95-6.45h372c3.73,0,6.77-3.04,6.77-6.77V16.85c0-3.73-3.04-6.77-6.77-6.77H16.87c-3.73,0-6.77,3.04-6.77,6.77v106.57c0,1.81.7,3.51,1.98,4.79,1.28,1.28,2.98,1.98,4.78,1.98h0l99.84-.06h.01Z"/>
</svg>